<?xml version="1.0" encoding="utf-8"?>
<!-- Generator: Adobe Illustrator 16.0.0, SVG Export Plug-In . SVG Version: 6.00 Build 0)  -->
<!DOCTYPE svg PUBLIC "-//W3C//DTD SVG 1.1//EN" "http://www.w3.org/Graphics/SVG/1.1/DTD/svg11.dtd">
<svg version="1.1" xmlns="http://www.w3.org/2000/svg" xmlns:xlink="http://www.w3.org/1999/xlink" x="0px" y="0px" width="50px"
	 height="58px" viewBox="0 0 50 58" enable-background="new 0 0 50 58" xml:space="preserve">
<g id="Layer_2" display="none">
	<g display="inline">
		<path fill-rule="evenodd" clip-rule="evenodd" fill="#9E5DA5" d="M23.586,57l-8-8H6c-2.757,0-5-2.243-5-5V6c0-2.757,2.243-5,5-5
			h38c2.757,0,5,2.243,5,5v38c0,2.757-2.243,5-5,5h-9.586l-8,8H23.586z"/>
		<path fill="#8C4D8A" d="M44,2c2.209,0,4,1.791,4,4v38c0,2.209-1.791,4-4,4H34l-8,8h-2l-8-8H6c-2.209,0-4-1.791-4-4V6
			c0-2.209,1.791-4,4-4H44 M44,0H6C2.691,0,0,2.691,0,6v38c0,3.309,2.691,6,6,6h9.171l7.415,7.414L23.171,58H24h2h0.828l0.586-0.586
			L34.828,50H44c3.309,0,6-2.691,6-6V6C50,2.691,47.309,0,44,0L44,0z"/>
	</g>
</g>
<g id="star" display="none">
	<path display="inline" fill-rule="evenodd" clip-rule="evenodd" fill-opacity="0.3" d="M23.928,10.236l5.249,9.52l10.676,2.051
		l-7.432,7.935l1.349,10.787l-9.842-4.617l-9.843,4.617l1.349-10.787l-7.432-7.935l10.676-2.051L23.928,10.236"/>
	<path display="inline" fill-rule="evenodd" clip-rule="evenodd" fill="#FFFFFF" d="M23.928,9.236l5.249,9.52l10.676,2.051
		l-7.432,7.935l1.349,10.787l-9.842-4.617l-9.843,4.617l1.349-10.787l-7.432-7.935l10.676-2.051L23.928,9.236"/>
</g>
<g id="railway" display="none">
	<g display="inline">
		<g opacity="0.2">
			<path fill-rule="evenodd" clip-rule="evenodd" d="M34.666,42.883h-2.15l-0.789-2H17.273l-0.789,2h-2.15l0.789-2H13.5v-2h2.412
				l0.789-2H15.5v-2h1.99l0.79-2H16.5c-1.657,0-3-1.343-3-3v-19c0-1.657,1.343-3,3-3h16c1.656,0,3,1.343,3,3v19c0,1.657-1.344,3-3,3
				h-1.78l0.79,2h1.99v2h-1.201l0.789,2H35.5v2h-1.623L34.666,42.883z M17,28.883c0.828,0,1.5-0.672,1.5-1.5s-0.672-1.5-1.5-1.5
				s-1.5,0.672-1.5,1.5S16.172,28.883,17,28.883z M25.5,9.883h-3c-0.553,0-1,0.447-1,1s0.447,1,1,1h3c0.553,0,1-0.447,1-1
				S26.053,9.883,25.5,9.883z M33.5,14.883c0-1.104-0.896-2-2-2h-14c-1.104,0-2,0.896-2,2v6c0,1.104,0.896,2,2,2h14
				c1.104,0,2-0.896,2-2V14.883z M19.641,34.883h9.719l-0.789-2H20.43L19.641,34.883z M32,28.883c0.828,0,1.5-0.672,1.5-1.5
				s-0.672-1.5-1.5-1.5s-1.5,0.672-1.5,1.5S31.172,28.883,32,28.883z M30.148,36.883H18.852l-0.789,2h12.875L30.148,36.883z"/>
		</g>
	</g>
	<g display="inline">
		<path fill-rule="evenodd" clip-rule="evenodd" fill="#FFFFFF" d="M34.666,41.883h-2.15l-0.789-2H17.273l-0.789,2h-2.15l0.789-2
			H13.5v-2h2.412l0.789-2H15.5v-2h1.99l0.79-2H16.5c-1.657,0-3-1.343-3-3v-19c0-1.657,1.343-3,3-3h16c1.656,0,3,1.343,3,3v19
			c0,1.657-1.344,3-3,3h-1.78l0.79,2h1.99v2h-1.201l0.789,2H35.5v2h-1.623L34.666,41.883z M17,27.883c0.828,0,1.5-0.672,1.5-1.5
			s-0.672-1.5-1.5-1.5s-1.5,0.672-1.5,1.5S16.172,27.883,17,27.883z M25.5,8.883h-3c-0.553,0-1,0.447-1,1s0.447,1,1,1h3
			c0.553,0,1-0.447,1-1S26.053,8.883,25.5,8.883z M33.5,13.883c0-1.104-0.896-2-2-2h-14c-1.104,0-2,0.896-2,2v6c0,1.104,0.896,2,2,2
			h14c1.104,0,2-0.896,2-2V13.883z M19.641,33.883h9.719l-0.789-2H20.43L19.641,33.883z M32,27.883c0.828,0,1.5-0.672,1.5-1.5
			s-0.672-1.5-1.5-1.5s-1.5,0.672-1.5,1.5S31.172,27.883,32,27.883z M30.148,35.883H18.852l-0.789,2h12.875L30.148,35.883z"/>
	</g>
</g>
<g id="airport" display="none">
	<path display="inline" fill-rule="evenodd" clip-rule="evenodd" fill-opacity="0.2" d="M40.504,9.223L40.24,9.483
		c-0.084,0.708-0.36,2.117-1.264,3.755c-1.301,2.355-2.148,3.053-2.148,3.053l-4.299,4.299l0.239,2.728l1.024-1.024l1.414,1.414
		l-2.212,2.212l0.336,3.836l1.462-1.462l1.414,1.414l-2.649,2.649l0.499,5.707l-1.584,1.584l-5.541-13.46l-10.066,8.257l0.396,5.825
		l-0.734,0.734l-2.519-4.357L11.7,37.8l1.153-2.308l-4.357-2.519l0.734-0.734l5.825,0.396l8.257-10.066l-13.46-5.542l1.584-1.583
		l5.707,0.499l2.649-2.649l1.414,1.414l-1.462,1.462l3.836,0.336l2.212-2.212l1.414,1.414l-1.024,1.024l2.728,0.238l4.299-4.298
		c0,0,0.697-0.848,3.053-2.148c1.638-0.904,3.047-1.18,3.754-1.264l0.262-0.264c0,0,0,0.085-0.013,0.239
		C40.419,9.223,40.504,9.223,40.504,9.223z"/>
	<path display="inline" fill-rule="evenodd" clip-rule="evenodd" fill="#FFFFFF" d="M40.504,8.223L40.24,8.483
		c-0.084,0.708-0.36,2.117-1.264,3.755c-1.301,2.355-2.148,3.053-2.148,3.053l-4.299,4.299l0.239,2.728l1.024-1.024l1.414,1.414
		l-2.212,2.212l0.336,3.836l1.462-1.462l1.414,1.414l-2.649,2.649l0.499,5.707l-1.584,1.584l-5.541-13.46l-10.066,8.257l0.396,5.825
		l-0.734,0.734l-2.519-4.357L11.7,36.8l1.153-2.308l-4.357-2.519l0.734-0.734l5.825,0.396l8.257-10.066l-13.46-5.542l1.584-1.583
		l5.707,0.499l2.649-2.649l1.414,1.414l-1.462,1.462l3.836,0.336l2.212-2.212l1.414,1.414l-1.024,1.024l2.728,0.238l4.299-4.298
		c0,0,0.697-0.848,3.053-2.148c1.638-0.904,3.047-1.18,3.754-1.264l0.262-0.264c0,0,0,0.085-0.013,0.239
		C40.419,8.223,40.504,8.223,40.504,8.223z"/>
</g>
<g id="parking" display="none">
	<path display="inline" opacity="0.2" fill-rule="evenodd" clip-rule="evenodd" d="M36.5,40.334h-24c-1.657,0-3-1.344-3-3v-24
		c0-1.657,1.343-3,3-3h24c1.656,0,3,1.343,3,3v24C39.5,38.99,38.156,40.334,36.5,40.334z M33.5,19.333c0-2.762-2.238-5-5-5h-11v22h4
		v-9h7c2.762,0,5-2.238,5-5V19.333z M26.5,24.333h-5v-7h5c1.656,0,3,1.343,3,3v1C29.5,22.991,28.156,24.333,26.5,24.333z"/>
	<path display="inline" fill-rule="evenodd" clip-rule="evenodd" fill="#FFFFFF" d="M36.5,39.334h-24c-1.657,0-3-1.344-3-3v-24
		c0-1.657,1.343-3,3-3h24c1.656,0,3,1.343,3,3v24C39.5,37.99,38.156,39.334,36.5,39.334z M33.5,18.333c0-2.762-2.238-5-5-5h-11v22h4
		v-9h7c2.762,0,5-2.238,5-5V18.333z M26.5,23.333h-5v-7h5c1.656,0,3,1.343,3,3v1C29.5,21.991,28.156,23.333,26.5,23.333z"/>
</g>
<g id="camp" display="none">
	<path display="inline" opacity="0.2" fill-rule="evenodd" clip-rule="evenodd" d="M8.508,40.828v-1.994h31.983v1.994H8.508z
		 M31.508,38.828l-7-14l-7,14h-6.985l1.661-2.969l11.141-19.916l-3.934-6.967l1.737-0.98l3.336,5.91l3.424-5.91l1.736,0.98
		l-3.933,6.966l11.16,19.905l1.656,2.98H31.508z"/>
	<path display="inline" fill-rule="evenodd" clip-rule="evenodd" fill="#FFFFFF" d="M8.508,39.828v-1.994h31.983v1.994H8.508z
		 M31.508,37.828l-7-14l-7,14h-6.985l1.661-2.969l11.141-19.916l-3.934-6.967l1.737-0.98l3.336,5.91l3.424-5.91l1.736,0.98
		l-3.933,6.966l11.16,19.905l1.656,2.98H31.508z"/>
</g>
<g id="gas" display="none">
	<path display="inline" opacity="0.2" fill-rule="evenodd" clip-rule="evenodd" d="M36.395,38.386c-2.904-0.115-4.029-2.23-4-5
		c0.062-5.954-1.952-6-1.996-6v12.006h2.983v1.994h-2.983H12.409H9.395v-1.994h3.015V9.386h17.989v16
		c0.045,0.002,3.996,0.143,3.996,5c0,4.885,0.658,6,2,6c1.341,0,3-0.154,3-7c0-6.846-4-9-4-9v-3l-3-3v-3l9,9v9
		C41.395,29.386,42.614,38.634,36.395,38.386z M28.395,12.386h-14v11h14V12.386z"/>
	<path display="inline" fill-rule="evenodd" clip-rule="evenodd" fill="#FFFFFF" d="M36.395,37.386c-2.904-0.115-4.029-2.23-4-5
		c0.062-5.954-1.952-6-1.996-6v12.006h2.983v1.994h-2.983H12.409H9.395v-1.994h3.015V8.386h17.989v16
		c0.045,0.002,3.996,0.143,3.996,5c0,4.885,0.658,6,2,6c1.341,0,3-0.154,3-7c0-6.846-4-9-4-9v-3l-3-3v-3l9,9v9
		C41.395,28.386,42.614,37.634,36.395,37.386z M28.395,11.386h-14v11h14V11.386z"/>
</g>
<g id="car" display="none">
	<path display="inline" opacity="0.2" fill-rule="evenodd" clip-rule="evenodd" d="M39.5,15h-1.584l0.646,0.815
		c0.294,0.371,0.532,0.796,0.697,1.269c0.164,0.473,0.241,0.954,0.241,1.428V26c0,0.256-0.098,0.512-0.293,0.707S38.756,27,38.5,27
		h-2c-0.256,0-0.512-0.098-0.707-0.293S35.5,26.256,35.5,26v-1h-10h-2h-10v1c0,0.256-0.098,0.512-0.293,0.707S12.756,27,12.5,27h-2
		c-0.256,0-0.512-0.098-0.707-0.293S9.5,26.256,9.5,26v-7.488c0-0.474,0.076-0.955,0.241-1.428c0.164-0.473,0.403-0.898,0.697-1.269
		L11.083,15H10.5h-1h-1v-1c0-0.552,0.447-1,1-1h3l1.869-2.493c0.341-0.454,0.788-0.838,1.329-1.109C16.24,9.127,16.816,9,17.384,9
		H23.5h1h1h6.116c0.567,0,1.143,0.127,1.685,0.398c0.542,0.271,0.989,0.655,1.329,1.109L36.5,13h3c0.552,0,1,0.448,1,1
		S40.052,15,39.5,15z M19.5,21v1v1c0,0.553,0.447,1,1,1h1h2h2h2h1c0.552,0,1-0.447,1-1v-1v-1v-1c0-0.553-0.448-1-1-1h-1h-2h-2h-2h-1
		c-0.553,0-1,0.447-1,1V21z M11.5,20c0,0.553,0.447,1,1,1h5c0.552,0,1-0.447,1-1s-0.448-1-1-1h-5C11.947,19,11.5,19.447,11.5,20z
		 M35.543,15.564l-2.666-4c-0.112-0.168-0.267-0.313-0.458-0.415C32.229,11.048,32.023,11,31.82,11H25.5h-1h-1h-6.321
		c-0.202,0-0.407,0.048-0.599,0.15c-0.191,0.102-0.345,0.246-0.457,0.415l-2.666,4c-0.184,0.274-0.213,0.637-0.046,0.948
		C13.577,16.823,13.896,17,14.225,17H23.5h1h1h9.274c0.33,0,0.648-0.177,0.814-0.488C35.755,16.202,35.726,15.839,35.543,15.564z
		 M36.5,19h-5c-0.553,0-1,0.447-1,1s0.447,1,1,1h5c0.552,0,1-0.447,1-1S37.052,19,36.5,19z M13.5,33h-4c0.912-1.208,2.369-2,4-2
		c1.63,0,4,1,5,3h5h2h5c1-2,3.369-3,5-3c1.63,0,3.087,0.792,4,2h-4l-2,2v2l2,2h4c-0.913,1.208-2.37,2-4,2c-1.631,0-4-1-5-3h-5h-2h-5
		c-1,2-3.37,3-5,3c-1.631,0-3.088-0.792-4-2h4l2-2v-2L13.5,33z"/>
	<path display="inline" fill-rule="evenodd" clip-rule="evenodd" fill="#FFFFFF" d="M39.5,14h-1.584l0.646,0.815
		c0.294,0.371,0.532,0.796,0.697,1.269c0.164,0.473,0.241,0.954,0.241,1.428V25c0,0.256-0.098,0.512-0.293,0.707S38.756,26,38.5,26
		h-2c-0.256,0-0.512-0.098-0.707-0.293S35.5,25.256,35.5,25v-1h-10h-2h-10v1c0,0.256-0.098,0.512-0.293,0.707S12.756,26,12.5,26h-2
		c-0.256,0-0.512-0.098-0.707-0.293S9.5,25.256,9.5,25v-7.488c0-0.474,0.076-0.955,0.241-1.428c0.164-0.473,0.403-0.898,0.697-1.269
		L11.083,14H10.5h-1h-1v-1c0-0.552,0.447-1,1-1h3l1.869-2.493c0.341-0.454,0.788-0.838,1.329-1.109C16.24,8.127,16.816,8,17.384,8
		H23.5h1h1h6.116c0.567,0,1.143,0.127,1.685,0.398c0.542,0.271,0.989,0.655,1.329,1.109L36.5,12h3c0.552,0,1,0.448,1,1
		S40.052,14,39.5,14z M19.5,20v1v1c0,0.553,0.447,1,1,1h1h2h2h2h1c0.552,0,1-0.447,1-1v-1v-1v-1c0-0.553-0.448-1-1-1h-1h-2h-2h-2h-1
		c-0.553,0-1,0.447-1,1V20z M11.5,19c0,0.553,0.447,1,1,1h5c0.552,0,1-0.447,1-1s-0.448-1-1-1h-5C11.947,18,11.5,18.447,11.5,19z
		 M35.543,14.564l-2.666-4c-0.112-0.168-0.267-0.313-0.458-0.415C32.229,10.048,32.023,10,31.82,10H25.5h-1h-1h-6.321
		c-0.202,0-0.407,0.048-0.599,0.15c-0.191,0.102-0.345,0.246-0.457,0.415l-2.666,4c-0.184,0.274-0.213,0.637-0.046,0.948
		C13.577,15.823,13.896,16,14.225,16H23.5h1h1h9.274c0.33,0,0.648-0.177,0.814-0.488C35.755,15.202,35.726,14.839,35.543,14.564z
		 M36.5,18h-5c-0.553,0-1,0.447-1,1s0.447,1,1,1h5c0.552,0,1-0.447,1-1S37.052,18,36.5,18z M13.5,32h-4c0.912-1.208,2.369-2,4-2
		c1.63,0,4,1,5,3h5h2h5c1-2,3.369-3,5-3c1.63,0,3.087,0.792,4,2h-4l-2,2v2l2,2h4c-0.913,1.208-2.37,2-4,2c-1.631,0-4-1-5-3h-5h-2h-5
		c-1,2-3.37,3-5,3c-1.631,0-3.088-0.792-4-2h4l2-2v-2L13.5,32z"/>
</g>
<g id="heart" display="none">
	<path display="inline" opacity="0.2" fill-rule="evenodd" clip-rule="evenodd" d="M24.563,40.228
		c-0.021-0.006-0.041-0.014-0.063-0.02V16.144c0.021-0.027,0.041-0.051,0.063-0.079c2.087-7.39,14.997-7.563,14.997,4.513
		C39.56,33.667,28.611,34.096,24.563,40.228z M9.44,20.577c0-12.076,12.909-11.902,14.997-4.513
		c0.021,0.028,0.041,0.052,0.063,0.079v24.064c-0.021,0.006-0.041,0.014-0.063,0.02C20.389,34.096,9.44,33.667,9.44,20.577z"/>
	<path display="inline" fill-rule="evenodd" clip-rule="evenodd" fill="#FFFFFF" d="M24.563,39.228
		c-0.021-0.006-0.041-0.014-0.063-0.02V15.144c0.021-0.027,0.041-0.051,0.063-0.079c2.087-7.39,14.997-7.563,14.997,4.513
		C39.56,32.667,28.611,33.096,24.563,39.228z M9.44,19.577c0-12.076,12.909-11.902,14.997-4.513
		c0.021,0.028,0.041,0.052,0.063,0.079v24.064c-0.021,0.006-0.041,0.014-0.063,0.02C20.389,33.096,9.44,32.667,9.44,19.577z"/>
</g>
<g id="bowling" display="none">
	<path display="inline" opacity="0.2" fill-rule="evenodd" clip-rule="evenodd" d="M31.421,19.498
		c-0.219-0.887-0.477-1.505-0.477-2.829c0-1.892,1.805-2.138,2.444-2.166v-0.002c0,0,0.041-0.002,0.111-0.001
		c0.07-0.001,0.111,0.001,0.111,0.001v0.002c0.639,0.028,2.444,0.274,2.444,2.166c0,1.324-0.258,1.942-0.477,2.829H31.421z
		 M31.698,21.498c-0.019-0.373-0.046-0.713-0.085-1h3.773c-0.039,0.287-0.066,0.627-0.085,1H31.698z M31.698,22.498h3.604
		c0.133,3.135,3.198,7.375,3.198,10.428c0,3.12-2.667,8.572-2.667,8.572h-2.111h-0.444h-2.11c0,0-0.379-0.773-0.851-1.904
		c0.987-2.417,2.184-5.83,2.184-8.207c0-1.701-0.743-3.689-1.602-5.727C31.323,24.547,31.657,23.468,31.698,22.498z M24.767,41.498
		h-0.533H21.7c0,0-3.2-6.461-3.2-10.159c0-3.45,3.363-8.187,3.814-11.841h4.371c0.451,3.654,3.814,8.391,3.814,11.841
		c0,3.698-3.2,10.159-3.2,10.159H24.767z M22.359,18.498c-0.01-0.81-0.059-1.468-0.139-2h4.558c-0.079,0.532-0.128,1.19-0.138,2
		H22.359z M22.021,15.498c-0.266-1.088-0.587-1.824-0.587-3.427c0-2.243,2.166-2.534,2.933-2.567V9.501c0,0,0.049-0.002,0.134-0.001
		c0.084,0,0.133,0.001,0.133,0.001v0.002c0.768,0.033,2.934,0.324,2.934,2.567c0,1.603-0.321,2.339-0.588,3.427H22.021z
		 M18.684,39.594c-0.472,1.131-0.851,1.904-0.851,1.904h-2.111h-0.444h-2.11c0,0-2.667-5.452-2.667-8.572
		c0-3.053,3.065-7.293,3.198-10.428h3.604c0.041,0.97,0.375,2.049,0.8,3.162c-0.858,2.037-1.602,4.025-1.602,5.727
		C16.5,33.764,17.695,37.177,18.684,39.594z M13.698,21.498c-0.019-0.373-0.046-0.713-0.085-1h3.773
		c-0.039,0.287-0.066,0.627-0.085,1H13.698z M13.421,19.498c-0.219-0.887-0.477-1.505-0.477-2.829c0-1.892,1.805-2.138,2.444-2.166
		v-0.002c0,0,0.041-0.002,0.111-0.001c0.07-0.001,0.111,0.001,0.111,0.001v0.002c0.639,0.028,2.444,0.274,2.444,2.166
		c0,1.324-0.258,1.942-0.477,2.829H13.421z"/>
	<path display="inline" fill-rule="evenodd" clip-rule="evenodd" fill="#FFFFFF" d="M31.421,18.498
		c-0.219-0.887-0.477-1.505-0.477-2.829c0-1.892,1.805-2.138,2.444-2.166v-0.002c0,0,0.041-0.002,0.111-0.001
		c0.07-0.001,0.111,0.001,0.111,0.001v0.002c0.639,0.028,2.444,0.274,2.444,2.166c0,1.324-0.258,1.942-0.477,2.829H31.421z
		 M31.698,20.498c-0.019-0.373-0.046-0.713-0.085-1h3.773c-0.039,0.287-0.066,0.627-0.085,1H31.698z M31.698,21.498h3.604
		c0.133,3.135,3.198,7.375,3.198,10.428c0,3.12-2.667,8.572-2.667,8.572h-2.111h-0.444h-2.11c0,0-0.379-0.773-0.851-1.904
		c0.987-2.417,2.184-5.83,2.184-8.207c0-1.701-0.743-3.689-1.602-5.727C31.323,23.547,31.657,22.468,31.698,21.498z M24.767,40.498
		h-0.533H21.7c0,0-3.2-6.461-3.2-10.159c0-3.45,3.363-8.187,3.814-11.841h4.371c0.451,3.654,3.814,8.391,3.814,11.841
		c0,3.698-3.2,10.159-3.2,10.159H24.767z M22.359,17.498c-0.01-0.81-0.059-1.468-0.139-2h4.558c-0.079,0.532-0.128,1.19-0.138,2
		H22.359z M22.021,14.498c-0.266-1.088-0.587-1.824-0.587-3.427c0-2.243,2.166-2.534,2.933-2.567V8.501c0,0,0.049-0.002,0.134-0.001
		c0.084,0,0.133,0.001,0.133,0.001v0.002c0.768,0.033,2.934,0.324,2.934,2.567c0,1.603-0.321,2.339-0.588,3.427H22.021z
		 M18.684,38.594c-0.472,1.131-0.851,1.904-0.851,1.904h-2.111h-0.444h-2.11c0,0-2.667-5.452-2.667-8.572
		c0-3.053,3.065-7.293,3.198-10.428h3.604c0.041,0.97,0.375,2.049,0.8,3.162c-0.858,2.037-1.602,4.025-1.602,5.727
		C16.5,32.764,17.695,36.177,18.684,38.594z M13.698,20.498c-0.019-0.373-0.046-0.713-0.085-1h3.773
		c-0.039,0.287-0.066,0.627-0.085,1H13.698z M13.421,18.498c-0.219-0.887-0.477-1.505-0.477-2.829c0-1.892,1.805-2.138,2.444-2.166
		v-0.002c0,0,0.041-0.002,0.111-0.001c0.07-0.001,0.111,0.001,0.111,0.001v0.002c0.639,0.028,2.444,0.274,2.444,2.166
		c0,1.324-0.258,1.942-0.477,2.829H13.421z"/>
</g>
<g id="golf" display="none">
	<path display="inline" opacity="0.2" fill-rule="evenodd" clip-rule="evenodd" d="M36,38.666c-2.485,0-4.5-2.014-4.5-4.5
		c0-2.484,2.015-4.5,4.5-4.5s4.5,2.016,4.5,4.5C40.5,36.652,38.485,38.666,36,38.666z M20.5,8.667l17,8l-17,8V8.667z M28.5,37.166
		c0,2.486-4.478,4.5-10,4.5c-5.523,0-10-2.014-10-4.5c0-2.334,3.946-4.252,9-4.477V8.667h2v24.023
		C24.553,32.914,28.5,34.832,28.5,37.166z M19.5,35.697v0.969h-2v-0.969c-2.282,0.139-4,0.744-4,1.469c0,0.828,2.238,1.5,5,1.5
		c2.761,0,5-0.672,5-1.5C23.5,36.441,21.782,35.836,19.5,35.697z"/>
	<path display="inline" fill-rule="evenodd" clip-rule="evenodd" fill="#FFFFFF" d="M36,37.666c-2.485,0-4.5-2.014-4.5-4.5
		c0-2.484,2.015-4.5,4.5-4.5s4.5,2.015,4.5,4.5C40.5,35.652,38.485,37.666,36,37.666z M20.5,7.667l17,8l-17,8V7.667z M28.5,36.166
		c0,2.486-4.478,4.5-10,4.5c-5.523,0-10-2.014-10-4.5c0-2.334,3.946-4.252,9-4.477V7.667h2v24.023
		C24.553,31.914,28.5,33.832,28.5,36.166z M19.5,34.697v0.969h-2v-0.969c-2.282,0.139-4,0.744-4,1.469c0,0.828,2.238,1.5,5,1.5
		c2.761,0,5-0.672,5-1.5C23.5,35.441,21.782,34.836,19.5,34.697z"/>
</g>
<g id="sport" display="none">
	<path display="inline" opacity="0.2" fill-rule="evenodd" clip-rule="evenodd" d="M24.5,41.166c-8.837,0-16-7.164-16-16
		s7.163-16,16-16s16,7.164,16,16S33.337,41.166,24.5,41.166z M17.585,29.449l6.094,2.27l3.755-4.682l-3.188-5.675l-6.447,1.703
		L17.585,29.449z M23.82,12.495l2.976,3.689l5.811-0.071l0.184-3.435c-1.787-1.188-3.846-1.99-6.06-2.324L23.82,12.495z
		 M36.148,22.213l-2.338,4.541l1.417,5.035l3.537-2.002c0.474-1.455,0.735-3.008,0.735-4.621c0-0.431-0.029-0.855-0.064-1.277
		L36.148,22.213z M31.016,38.652l0.386-1.826l-6.022-0.213l-3.4,2.27l0.333,1.111c0.706,0.102,1.423,0.172,2.157,0.172
		C26.818,40.166,29.034,39.613,31.016,38.652z M14.534,36.402l0.854-0.285l-1.417-4.328l-3.117-3.121l-0.828,0.623
		C10.825,32.08,12.412,34.533,14.534,36.402z M9.438,25.166c0,0.012,0.002,0.021,0.002,0.031c0.004-2.119,0.445-4.135,1.238-5.964
		l0.247,2.128l3.968-2.625l2.268-4.966l-1.803-0.516C11.765,15.997,9.438,20.305,9.438,25.166z M16.29,12.592
		c-0.266,0.172-0.521,0.358-0.774,0.546C15.769,12.949,16.024,12.765,16.29,12.592z"/>
	<path display="inline" fill-rule="evenodd" clip-rule="evenodd" fill="#FFFFFF" d="M24.5,40.166c-8.837,0-16-7.164-16-16
		c0-8.836,7.163-16,16-16s16,7.164,16,16C40.5,33.002,33.337,40.166,24.5,40.166z M17.585,28.45l6.094,2.269l3.755-4.681
		l-3.188-5.676l-6.447,1.703L17.585,28.45z M23.82,11.495l2.976,3.689l5.811-0.071l0.184-3.435c-1.787-1.188-3.846-1.99-6.06-2.324
		L23.82,11.495z M36.148,21.213l-2.338,4.54l1.417,5.036l3.537-2.001c0.474-1.456,0.735-3.008,0.735-4.621
		c0-0.432-0.029-0.855-0.064-1.278L36.148,21.213z M31.016,37.652l0.386-1.826l-6.022-0.213l-3.4,2.27l0.333,1.111
		c0.706,0.102,1.423,0.172,2.157,0.172C26.818,39.166,29.034,38.613,31.016,37.652z M14.534,35.402l0.854-0.285l-1.417-4.328
		l-3.117-3.121l-0.828,0.622C10.825,31.08,12.412,33.533,14.534,35.402z M9.438,24.167c0,0.011,0.002,0.021,0.002,0.031
		c0.004-2.12,0.445-4.136,1.238-5.964l0.247,2.128l3.968-2.625l2.268-4.966l-1.803-0.516C11.765,14.997,9.438,19.305,9.438,24.167z
		 M16.29,11.592c-0.266,0.172-0.521,0.358-0.774,0.546C15.769,11.949,16.024,11.765,16.29,11.592z"/>
</g>
<g id="restaurant" display="none">
	<path display="inline" opacity="0.2" fill-rule="evenodd" clip-rule="evenodd" d="M35,38.166c0,2-1,3-3.063,3.016
		C30.28,41.195,29,40.166,29,38.166l3-11c-6.313-0.016-3-11-1-15c1.265-2.53,4-3,4-3l-0.063,14.016L35,38.166z M23,19.167
		c0,2.344-3,3-3.563,5l1.563,14c0,3-1.494,3.016-3.063,3.016c-1.657,0-2.938-0.016-2.938-3.016l1.469-14
		c-0.469-2-3.469-2.656-3.469-5v-9c0-0.553,0.448-1,1-1s1,0.447,1,1l0.003,7.016c0.009,0.545,0.45,0.984,0.997,0.984
		c0.553,0,1-0.448,1-1c0-9.141,0-7,0-7c0-0.553,0.447-1,1-1c0.552,0,1,0.447,1,1v7c0.009,0.545,0.453,1,1,1c0.553,0,1-0.448,1-1
		c0-4.451,0-7,0-7c0-0.553,0.447-1,1-1s1,0.447,1,1V19.167z"/>
	<path display="inline" fill-rule="evenodd" clip-rule="evenodd" fill="#FFFFFF" d="M35,37.166c0,2-1,3-3.063,3.016
		C30.28,40.195,29,39.166,29,37.166l3-11c-6.313-0.016-3-11-1-15c1.265-2.53,4-3,4-3l-0.063,14.016L35,37.166z M23,18.167
		c0,2.344-3,3-3.563,5l1.563,14c0,3-1.494,3.016-3.063,3.016c-1.657,0-2.938-0.016-2.938-3.016l1.469-14
		c-0.469-2-3.469-2.656-3.469-5v-9c0-0.553,0.448-1,1-1s1,0.447,1,1l0.003,7.016c0.009,0.545,0.45,0.984,0.997,0.984
		c0.553,0,1-0.448,1-1c0-9.141,0-7,0-7c0-0.553,0.447-1,1-1c0.552,0,1,0.447,1,1v7c0.009,0.545,0.453,1,1,1c0.553,0,1-0.448,1-1
		c0-4.451,0-7,0-7c0-0.553,0.447-1,1-1s1,0.447,1,1V18.167z"/>
</g>
<g id="wifi" display="none">
	<path display="inline" opacity="0.2" fill-rule="evenodd" clip-rule="evenodd" d="M37.028,19.196
		c-7.667-4.8-17.479-4.702-25.055,0.297l-2.471-4.159c9.095-5.923,20.813-6.011,29.995-0.296L37.028,19.196z M34.561,23.35
		l-2.479,4.171c-4.632-2.961-10.617-2.855-15.156,0.309l-2.477-4.17C20.508,19.577,28.41,19.47,34.561,23.35z M24.496,30.834
		c2.209,0,4,1.791,4,4s-1.791,4-4,4s-4-1.791-4-4S22.287,30.834,24.496,30.834z"/>
	<path display="inline" fill-rule="evenodd" clip-rule="evenodd" fill="#FFFFFF" d="M37.028,18.196
		c-7.667-4.8-17.479-4.702-25.055,0.297l-2.471-4.159c9.095-5.923,20.813-6.011,29.995-0.296L37.028,18.196z M34.561,22.35
		l-2.479,4.172c-4.632-2.961-10.617-2.856-15.156,0.309l-2.477-4.171C20.508,18.577,28.41,18.47,34.561,22.35z M24.496,29.834
		c2.209,0,4,1.791,4,4s-1.791,4-4,4s-4-1.791-4-4S22.287,29.834,24.496,29.834z"/>
</g>
<g id="pub" display="none">
	<path display="inline" opacity="0.2" fill-rule="evenodd" clip-rule="evenodd" d="M34.5,33.25h-2v3c0,1.656-1.344,3-3,3h-13
		c-1.657,0-3-1.344-3-3v-11v-4c0.613,0.269,1.287,0,2,0c1.322,0,2.521-0.517,3.416-1.356c0.625,0.22,1.328,0.356,2.084,0.356
		c1.07,0,2.04-0.259,2.813-0.675c0.601,0.416,1.355,0.675,2.188,0.675c0.709,0,1.367-0.184,1.919-0.495
		c0.521,0.89,1.476,1.495,2.581,1.495c0.771,0,1.469,0.479,2,0l0,0h2c1.656,0,3,1.343,3,3v6C37.5,31.906,36.156,33.25,34.5,33.25z
		 M18.5,23.75c0-0.829-0.672-1.5-1.5-1.5s-1.5,0.671-1.5,1.5v11c0,0.828,0.672,1.5,1.5,1.5s1.5-0.672,1.5-1.5V23.75z M24.5,23.75
		c0-0.829-0.672-1.5-1.5-1.5s-1.5,0.671-1.5,1.5v11c0,0.828,0.672,1.5,1.5,1.5s1.5-0.672,1.5-1.5V23.75z M30.5,23.75
		c0-0.829-0.672-1.5-1.5-1.5s-1.5,0.671-1.5,1.5v11c0,0.828,0.672,1.5,1.5,1.5s1.5-0.672,1.5-1.5V23.75z M35.5,25.5
		c0-1.242-0.896-2.25-2-2.25h-1v2.25v0.75V29v2.25h1c1.104,0,2-1.008,2-2.25V25.5z M31.5,20.25c-1.131,0-2.104-0.634-2.615-1.559
		C28.34,19.042,27.695,19.25,27,19.25c-1.132,0-2.127-0.546-2.768-1.379C23.414,18.718,22.271,19.25,21,19.25
		c-1.08,0-2.058-0.396-2.834-1.03c-0.556,1.196-1.76,2.03-3.166,2.03c-1.933,0-3.5-1.567-3.5-3.5s1.567-3.5,3.5-3.5
		c0.598,0,1.15,0.164,1.643,0.427c0.483-1.964,2.244-3.427,4.357-3.427c1.799,0,3.34,1.063,4.06,2.589
		c0.556-0.371,1.222-0.589,1.94-0.589c1.499,0,2.768,0.947,3.267,2.271c0.377-0.171,0.792-0.271,1.233-0.271c1.656,0,3,1.343,3,3
		S33.156,20.25,31.5,20.25z"/>
	<path display="inline" fill-rule="evenodd" clip-rule="evenodd" fill="#FFFFFF" d="M34.5,32.25h-2v3c0,1.656-1.344,3-3,3h-13
		c-1.657,0-3-1.344-3-3v-11v-4c0.613,0.269,1.287,0,2,0c1.322,0,2.521-0.517,3.416-1.356c0.625,0.22,1.328,0.356,2.084,0.356
		c1.07,0,2.04-0.259,2.813-0.675c0.601,0.416,1.355,0.675,2.188,0.675c0.709,0,1.367-0.184,1.919-0.495
		c0.521,0.89,1.476,1.495,2.581,1.495c0.771,0,1.469,0.479,2,0l0,0h2c1.656,0,3,1.343,3,3v6C37.5,30.906,36.156,32.25,34.5,32.25z
		 M18.5,22.75c0-0.829-0.672-1.5-1.5-1.5s-1.5,0.671-1.5,1.5v11c0,0.828,0.672,1.5,1.5,1.5s1.5-0.672,1.5-1.5V22.75z M24.5,22.75
		c0-0.829-0.672-1.5-1.5-1.5s-1.5,0.671-1.5,1.5v11c0,0.828,0.672,1.5,1.5,1.5s1.5-0.672,1.5-1.5V22.75z M30.5,22.75
		c0-0.829-0.672-1.5-1.5-1.5s-1.5,0.671-1.5,1.5v11c0,0.828,0.672,1.5,1.5,1.5s1.5-0.672,1.5-1.5V22.75z M35.5,24.5
		c0-1.242-0.896-2.25-2-2.25h-1v2.25v0.75V28v2.25h1c1.104,0,2-1.008,2-2.25V24.5z M31.5,19.25c-1.131,0-2.104-0.634-2.615-1.559
		C28.34,18.042,27.695,18.25,27,18.25c-1.132,0-2.127-0.546-2.768-1.379C23.414,17.718,22.271,18.25,21,18.25
		c-1.08,0-2.058-0.396-2.834-1.03c-0.556,1.196-1.76,2.03-3.166,2.03c-1.933,0-3.5-1.567-3.5-3.5s1.567-3.5,3.5-3.5
		c0.598,0,1.15,0.164,1.643,0.427C17.126,10.713,18.887,9.25,21,9.25c1.799,0,3.34,1.063,4.06,2.589
		c0.556-0.371,1.222-0.589,1.94-0.589c1.499,0,2.768,0.947,3.267,2.271c0.377-0.171,0.792-0.271,1.233-0.271c1.656,0,3,1.343,3,3
		S33.156,19.25,31.5,19.25z"/>
</g>
<g id="cafe" display="none">
	<path display="inline" opacity="0.2" fill-rule="evenodd" clip-rule="evenodd" d="M33.865,32.603
		c-0.855,1.752-2.133,3.182-3.689,4.064H38v1c0,1.104-0.896,2-2,2H12c-1.104,0-2-0.896-2-2v-1h7.824
		c-2.852-1.617-4.824-5.033-4.824-9v-6h22v2.051c2.246,0.252,4,2.135,4,4.449C39,31.612,35.18,32.431,33.865,32.603z M35,25.667
		c0.041,0.344,0,1.119,0,2.5s0.01,1.5,0,2.5c-0.006,0.553,2.031-0.494,2-2.5C36.995,25.849,34.934,25.118,35,25.667z M30.173,13.421
		c0.791,2.077,0.881,3.779,0.206,5.254l-1.909-0.562c0.503-1.124,0.427-2.467-0.25-4.244c-0.656-1.721,0.289-2.917,0.873-4.203
		l1.913,0.563C30.564,11.215,29.655,12.065,30.173,13.421z M24.173,13.256c0.791,2.539,0.881,4.619,0.206,6.421L22.47,18.99
		c0.503-1.374,0.428-3.015-0.25-5.188c-0.656-2.103,0.289-3.565,0.873-5.137l1.913,0.689C24.564,10.559,23.655,11.598,24.173,13.256
		z M18.173,13.421c0.791,2.077,0.881,3.779,0.206,5.254l-1.909-0.562c0.503-1.124,0.427-2.467-0.25-4.244
		c-0.656-1.721,0.289-2.917,0.873-4.203l1.913,0.563C18.564,11.215,17.655,12.065,18.173,13.421z"/>
	<path display="inline" fill-rule="evenodd" clip-rule="evenodd" fill="#FFFFFF" d="M33.865,31.603
		c-0.855,1.752-2.133,3.182-3.689,4.064H38v1c0,1.104-0.896,2-2,2H12c-1.104,0-2-0.896-2-2v-1h7.824
		c-2.852-1.617-4.824-5.033-4.824-9v-6h22v2.051c2.246,0.252,4,2.135,4,4.449C39,30.612,35.18,31.431,33.865,31.603z M35,24.667
		c0.041,0.344,0,1.119,0,2.5s0.01,1.5,0,2.5c-0.006,0.553,2.031-0.494,2-2.5C36.995,24.849,34.934,24.118,35,24.667z M30.173,12.421
		c0.791,2.077,0.881,3.779,0.206,5.254l-1.909-0.562c0.503-1.124,0.427-2.467-0.25-4.244c-0.656-1.721,0.289-2.917,0.873-4.203
		l1.913,0.563C30.564,10.215,29.655,11.065,30.173,12.421z M24.173,12.256c0.791,2.539,0.881,4.619,0.206,6.421L22.47,17.99
		c0.503-1.374,0.428-3.015-0.25-5.188c-0.656-2.103,0.289-3.565,0.873-5.137l1.913,0.689C24.564,9.559,23.655,10.598,24.173,12.256z
		 M18.173,12.421c0.791,2.077,0.881,3.779,0.206,5.254l-1.909-0.562c0.503-1.124,0.427-2.467-0.25-4.244
		c-0.656-1.721,0.289-2.917,0.873-4.203l1.913,0.563C18.564,10.215,17.655,11.065,18.173,12.421z"/>
</g>
<g id="hotel" display="none">
	<path display="inline" opacity="0.2" fill-rule="evenodd" clip-rule="evenodd" d="M39.5,32.333v5h-3v-4.084h-24v4h-3v-4l0,0v-20h3
		v8.083h5l3,2l0,0v1v1h1l0,0h15v-4h3v6l0,0V32.333L39.5,32.333z M36.5,28.333h-12h-3h-9v1h24V28.333z"/>
	<path display="inline" fill-rule="evenodd" clip-rule="evenodd" fill="#FFFFFF" d="M39.5,31.333v5h-3v-4.084h-24v4h-3v-4l0,0v-20h3
		v8.083h5l3,2l0,0v1v1h1l0,0h15v-4h3v6l0,0V31.333L39.5,31.333z M36.5,27.333h-12h-3h-9v1h24V27.333z"/>
</g>
<g id="monument" display="none">
	<path display="inline" opacity="0.2" fill-rule="evenodd" clip-rule="evenodd" d="M12.5,39.667v-4h24v4H12.5z M15.5,31.667h18v2
		h-18V31.667z M19.5,15.667l5-6l5,6l2,14h-14L19.5,15.667z"/>
	<path display="inline" fill-rule="evenodd" clip-rule="evenodd" fill="#FFFFFF" d="M12.5,38.667v-4h24v4H12.5z M15.5,30.667h18v2
		h-18V30.667z M19.5,14.667l5-6l5,6l2,14h-14L19.5,14.667z"/>
</g>
<g id="museum" display="none">
	<path display="inline" opacity="0.2" fill-rule="evenodd" clip-rule="evenodd" d="M9.5,38.666v-4h30v4H9.5z M32.5,20.667v-1h1h3h1
		v1h-1v11h1v2h-5v-2h1v-11H32.5z M25.5,20.667v-1h1h3h1v1h-1v11h1v2h-5v-2h1v-11H25.5z M18.5,20.667v-1h1h3h1v1h-1v11h1v2h-5v-2h1
		v-11H18.5z M11.5,20.667v-1h1h3h1v1h-1v11h1v2h-5v-2h1v-11H11.5z M9.5,16.667l15-8l15,8v2h-30V16.667z"/>
	<path display="inline" fill-rule="evenodd" clip-rule="evenodd" fill="#FFFFFF" d="M9.5,37.666v-4h30v4H9.5z M32.5,19.667v-1h1h3h1
		v1h-1v11h1v2h-5v-2h1v-11H32.5z M25.5,19.667v-1h1h3h1v1h-1v11h1v2h-5v-2h1v-11H25.5z M18.5,19.667v-1h1h3h1v1h-1v11h1v2h-5v-2h1
		v-11H18.5z M11.5,19.667v-1h1h3h1v1h-1v11h1v2h-5v-2h1v-11H11.5z M9.5,15.667l15-8l15,8v2h-30V15.667z"/>
</g>
<g id="theater" display="none">
	<path display="inline" opacity="0.2" fill-rule="evenodd" clip-rule="evenodd" d="M38.965,31.178
		c-0.678,2.359-2.912,9.343-11.791,9.319c-1.636-1.005-2.812-2.129-3.675-3.292c0.721,0.072,1.473,0.112,2.268,0.107
		c0.574-0.357,1.093-0.729,1.589-1.105c0.322,0.057,0.652,0.129,0.988,0.225c1.398,0.396,2.553,1.062,3.178,1.625
		c0.209-0.961-0.408-3.156-1.795-4.023c1.273-1.403,2.156-2.868,2.736-4.334c0.477-0.062,0.977-0.089,1.449,0.045
		c0.947,0.27,1.643,1.145,2.285,1.554c0.27-1.132-0.441-2.839-1.805-3.226c-0.471-0.134-0.957-0.084-1.412,0.072
		c0.461-1.731,0.564-3.412,0.479-4.937c2.869,0.472,5.145-0.274,5.145-0.274C39.715,26.038,39.643,28.82,38.965,31.178z
		 M25.401,36.319c-11.29,0.065-14.26-8.896-15.166-11.923c-0.906-3.027-1.048-6.599,0.309-10.591c0,0,3.953,1.184,8.109-0.025
		c4.335-1.261,6.825-4.319,6.825-4.319c3.336,2.627,5.186,5.703,6.092,8.729S34.918,30.334,25.401,36.319z M24.437,33.101
		c2.875-0.837,4.131-5.166,3.727-6.918c-0.979,0.907-2.798,1.981-5.012,2.624c-2.214,0.645-4.335,0.717-5.655,0.479
		C18.122,30.973,21.561,33.938,24.437,33.101z M15.993,20.388c-1.726,0.502-2.6,2.698-2.236,4.151
		c0.811-0.529,1.678-1.655,2.879-2.004c1.201-0.349,2.55,0.132,3.521,0.143C19.663,21.263,17.719,19.886,15.993,20.388z
		 M24.527,17.906c-1.726,0.502-2.601,2.698-2.236,4.151c0.812-0.528,1.679-1.655,2.879-2.004c1.2-0.349,2.549,0.132,3.522,0.143
		C28.197,18.78,26.252,17.404,24.527,17.906z"/>
	<path display="inline" fill-rule="evenodd" clip-rule="evenodd" fill="#FFFFFF" d="M38.966,30.178
		c-0.679,2.359-2.913,9.343-11.791,9.319c-1.637-1.005-2.813-2.129-3.676-3.292c0.721,0.072,1.473,0.112,2.268,0.107
		c0.574-0.357,1.094-0.729,1.59-1.105c0.322,0.057,0.652,0.129,0.988,0.225c1.398,0.396,2.553,1.062,3.177,1.625
		c0.21-0.961-0.407-3.156-1.794-4.023c1.272-1.403,2.155-2.868,2.736-4.334c0.477-0.062,0.976-0.089,1.448,0.045
		c0.948,0.27,1.644,1.145,2.286,1.554c0.27-1.132-0.441-2.839-1.805-3.226c-0.471-0.134-0.958-0.084-1.412,0.072
		c0.46-1.731,0.564-3.412,0.479-4.937c2.869,0.472,5.145-0.274,5.145-0.274C39.716,25.038,39.644,27.82,38.966,30.178z
		 M25.401,35.319c-11.29,0.065-14.26-8.896-15.166-11.923c-0.906-3.027-1.048-6.599,0.309-10.591c0,0,3.953,1.184,8.109-0.025
		c4.335-1.261,6.825-4.319,6.825-4.319c3.337,2.627,5.187,5.703,6.092,8.729C32.477,20.218,34.919,29.334,25.401,35.319z
		 M24.438,32.101c2.876-0.837,4.132-5.166,3.728-6.918c-0.979,0.907-2.799,1.981-5.013,2.624c-2.214,0.645-4.335,0.717-5.655,0.479
		C18.122,29.973,21.562,32.938,24.438,32.101z M15.993,19.388c-1.726,0.502-2.6,2.698-2.236,4.151
		c0.811-0.529,1.678-1.655,2.879-2.004c1.201-0.349,2.55,0.132,3.521,0.143C19.663,20.263,17.72,18.886,15.993,19.388z
		 M24.527,16.906c-1.726,0.502-2.601,2.698-2.236,4.151c0.812-0.528,1.679-1.655,2.879-2.004s2.55,0.132,3.521,0.143
		C28.197,17.78,26.253,16.404,24.527,16.906z"/>
</g>
<g id="move" display="none">
	<path display="inline" opacity="0.2" fill-rule="evenodd" clip-rule="evenodd" d="M9.5,39.5v-30h12l0,0h2l0,0h2l0,0h2l0,0h12v30
		H9.5z M13.5,11.5h-2v2h2V11.5z M13.5,15.5h-2v2h2V15.5z M13.5,19.5h-2v2h2V19.5z M13.5,23.5h-2v2h2V23.5z M13.5,27.5h-2v2h2V27.5z
		 M13.5,31.5h-2v2h2V31.5z M13.5,35.5h-2v2h2V35.5z M33.5,11.5h-18v12h18V11.5z M33.5,25.5h-18v12h18V25.5z M37.5,11.5h-2v2h2V11.5z
		 M37.5,15.5h-2v2h2V15.5z M37.5,19.5h-2v2h2V19.5z M37.5,23.5h-2v2h2V23.5z M37.5,27.5h-2v2h2V27.5z M37.5,31.5h-2v2h2V31.5z
		 M37.5,35.5h-2v2h2V35.5z"/>
	<path display="inline" fill-rule="evenodd" clip-rule="evenodd" fill="#FFFFFF" d="M9.5,38.5v-30h12l0,0h2l0,0h2l0,0h2l0,0h12v30
		H9.5z M13.5,10.5h-2v2h2V10.5z M13.5,14.5h-2v2h2V14.5z M13.5,18.5h-2v2h2V18.5z M13.5,22.5h-2v2h2V22.5z M13.5,26.5h-2v2h2V26.5z
		 M13.5,30.5h-2v2h2V30.5z M13.5,34.5h-2v2h2V34.5z M33.5,10.5h-18v12h18V10.5z M33.5,24.5h-18v12h18V24.5z M37.5,10.5h-2v2h2V10.5z
		 M37.5,14.5h-2v2h2V14.5z M37.5,18.5h-2v2h2V18.5z M37.5,22.5h-2v2h2V22.5z M37.5,26.5h-2v2h2V26.5z M37.5,30.5h-2v2h2V30.5z
		 M37.5,34.5h-2v2h2V34.5z"/>
</g>
<g id="bank" display="none">
	<path display="inline" opacity="0.2" fill-rule="evenodd" clip-rule="evenodd" d="M27.2,17.479
		c-0.062-0.046-0.142-0.078-0.209-0.12v5.43c1.647,0.432,2.941,0.873,3.862,1.326c1.267,0.623,2.258,1.475,2.974,2.555
		s1.074,2.415,1.074,4.004c0,1.44-0.429,2.789-1.285,4.047c-0.857,1.258-2.068,2.191-3.635,2.804
		c-0.873,0.34-1.878,0.576-2.99,0.727v2.167h-2v-2.006c-0.287,0.01-0.564,0.029-0.865,0.029c-0.39,0-0.766-0.013-1.135-0.031v2.008
		h-2v-2.229c-1.915-0.327-3.488-0.972-4.703-1.95c-1.824-1.469-2.913-3.609-3.268-6.422l5.287-0.48
		c0.317,1.658,0.963,2.875,1.936,3.652c0.23,0.184,0.481,0.341,0.748,0.481v-6.901c-2.063-0.59-3.576-1.278-4.52-2.067
		c-1.652-1.383-2.479-3.069-2.479-5.059c0-1.28,0.389-2.478,1.166-3.592c0.777-1.115,1.896-1.964,3.359-2.547
		c0.744-0.297,1.57-0.517,2.473-0.662v-2.224h2v2.042c0.273-0.012,0.538-0.03,0.822-0.03c0.405,0,0.797,0.011,1.178,0.031v-2.043h2
		v2.263c1.841,0.312,3.329,0.916,4.449,1.823c1.707,1.384,2.604,3.229,2.689,5.539l-5.434,0.223
		C28.464,18.973,27.966,18.044,27.2,17.479z M20.991,17.072c-0.342,0.13-0.664,0.278-0.94,0.466
		c-0.575,0.389-0.862,0.909-0.862,1.561c0,0.595,0.269,1.104,0.808,1.526c0.224,0.176,0.563,0.354,0.995,0.534V17.072z
		 M28.137,33.116c0.888-0.691,1.331-1.5,1.331-2.426c0-0.595-0.188-1.101-0.561-1.518c-0.367-0.411-1.008-0.77-1.916-1.074v5.614
		C27.423,33.553,27.817,33.365,28.137,33.116z M22.991,34.078c0.375,0.05,0.771,0.075,1.189,0.075c0.288,0,0.547-0.023,0.811-0.042
		v-6.553c-0.572-0.143-1.217-0.298-2-0.481V34.078z M23.759,16.63c-0.271,0-0.517,0.021-0.768,0.038v5.148
		c0.591,0.161,1.251,0.324,1.998,0.488c0,0.001,0.002,0.001,0.002,0.001v-5.597C24.61,16.661,24.206,16.63,23.759,16.63z"/>
	<path display="inline" fill-rule="evenodd" clip-rule="evenodd" fill="#FFFFFF" d="M27.2,16.479
		c-0.062-0.046-0.142-0.078-0.209-0.12v5.43c1.647,0.432,2.941,0.873,3.862,1.326c1.267,0.623,2.258,1.475,2.974,2.555
		s1.074,2.415,1.074,4.004c0,1.44-0.429,2.789-1.285,4.047c-0.857,1.258-2.068,2.191-3.635,2.804
		c-0.873,0.34-1.878,0.576-2.99,0.727v2.167h-2v-2.006c-0.287,0.01-0.564,0.029-0.865,0.029c-0.39,0-0.766-0.013-1.135-0.031v2.008
		h-2v-2.229c-1.915-0.327-3.488-0.972-4.703-1.95c-1.824-1.469-2.913-3.609-3.268-6.422l5.287-0.48
		c0.317,1.658,0.963,2.875,1.936,3.652c0.23,0.184,0.481,0.341,0.748,0.481v-6.901c-2.063-0.59-3.576-1.278-4.52-2.067
		c-1.652-1.383-2.479-3.069-2.479-5.059c0-1.28,0.389-2.478,1.166-3.592c0.777-1.115,1.896-1.964,3.359-2.547
		c0.744-0.297,1.57-0.517,2.473-0.662V9.417h2v2.042c0.273-0.012,0.538-0.03,0.822-0.03c0.405,0,0.797,0.011,1.178,0.031V9.417h2
		v2.263c1.841,0.312,3.329,0.916,4.449,1.823c1.707,1.384,2.604,3.229,2.689,5.539l-5.434,0.223
		C28.464,17.973,27.966,17.044,27.2,16.479z M20.991,16.072c-0.342,0.13-0.664,0.278-0.94,0.466
		c-0.575,0.389-0.862,0.909-0.862,1.561c0,0.595,0.269,1.104,0.808,1.526c0.224,0.176,0.563,0.354,0.995,0.534V16.072z
		 M28.137,32.116c0.888-0.691,1.331-1.5,1.331-2.426c0-0.595-0.188-1.101-0.561-1.518c-0.367-0.411-1.008-0.77-1.916-1.074v5.614
		C27.423,32.553,27.817,32.365,28.137,32.116z M22.991,33.078c0.375,0.05,0.771,0.075,1.189,0.075c0.288,0,0.547-0.023,0.811-0.042
		v-6.553c-0.572-0.143-1.217-0.298-2-0.481V33.078z M23.759,15.63c-0.271,0-0.517,0.021-0.768,0.038v5.148
		c0.591,0.161,1.251,0.324,1.998,0.488c0,0.001,0.002,0.001,0.002,0.001v-5.597C24.61,15.661,24.206,15.63,23.759,15.63z"/>
</g>
<g id="health" display="none">
	<path display="inline" opacity="0.2" fill-rule="evenodd" clip-rule="evenodd" d="M39.5,30.084h-10v10h-10v-10h-10V20.083h10v-10
		h10v10h10V30.084z"/>
	<path display="inline" fill-rule="evenodd" clip-rule="evenodd" fill="#FFFFFF" d="M39.5,29.084h-10v10h-10v-10h-10v-10h10v-10h10
		v10h10V29.084z"/>
</g>
<g id="shop" display="none">
	<path display="inline" opacity="0.2" fill-rule="evenodd" clip-rule="evenodd" d="M33.5,29.832h-10h-2h-6v2.918v1.082l-2,1V32.75
		v-2v-2v-2v-6v-2v-7.917h-4V8.75h4h2v2v4.083h24L33.5,29.832z M16.5,34.832c1.656,0,3,1.344,3,3c0,1.658-1.344,3-3,3
		c-1.657,0-3-1.342-3-3C13.5,36.176,14.843,34.832,16.5,34.832z M26.5,36.75h-6l-1-1.918h8L26.5,36.75z M30.5,34.832
		c1.656,0,3,1.344,3,3c0,1.658-1.344,3-3,3c-1.657,0-3-1.342-3-3C27.5,36.176,28.843,34.832,30.5,34.832z"/>
	<path display="inline" fill-rule="evenodd" clip-rule="evenodd" fill="#FFFFFF" d="M33.5,28.833h-10h-2h-6v2.917v1.083l-2,1V31.75
		v-2v-2v-2v-6v-2V9.833h-4V7.75h4h2v2v4.083h24L33.5,28.833z M16.5,33.833c1.656,0,3,1.343,3,3s-1.344,3-3,3c-1.657,0-3-1.343-3-3
		S14.843,33.833,16.5,33.833z M26.5,35.75h-6l-1-1.917h8L26.5,35.75z M30.5,33.833c1.656,0,3,1.343,3,3s-1.344,3-3,3
		c-1.657,0-3-1.343-3-3S28.843,33.833,30.5,33.833z"/>
</g>
<g id="police" display="none">
	<path display="inline" opacity="0.2" fill-rule="evenodd" clip-rule="evenodd" d="M24.5,41.894
		C11.201,38.058,9.503,26.166,9.503,22.243c0-3.924,0.997-8.058,3.997-12.348c0,2,8,4,11,0.002c3,3.998,11,1.998,11-0.002
		c3,4.29,3.997,8.424,3.997,12.348C39.497,26.166,37.799,38.058,24.5,41.894z M27.466,21.552L24.5,15.896l-2.967,5.656l-6.032,1.219
		l4.199,4.714l-0.763,6.41l5.563-2.744l5.562,2.744l-0.763-6.41l4.199-4.714L27.466,21.552z"/>
	<path display="inline" fill-rule="evenodd" clip-rule="evenodd" fill="#FFFFFF" d="M24.5,40.894
		C11.201,37.058,9.503,25.166,9.503,21.243c0-3.924,0.997-8.058,3.997-12.348c0,2,8,4,11,0.002c3,3.998,11,1.998,11-0.002
		c3,4.29,3.997,8.424,3.997,12.348C39.497,25.166,37.799,37.058,24.5,40.894z M27.466,20.552L24.5,14.896l-2.967,5.656l-6.032,1.219
		l4.199,4.714l-0.763,6.41l5.563-2.744l5.562,2.744l-0.763-6.41l4.199-4.714L27.466,20.552z"/>
</g>
<g id="education" display="none">
	<path display="inline" opacity="0.2" fill-rule="evenodd" clip-rule="evenodd" d="M35.104,28.771v-4h-0.182
		c-0.834-2.282-4.465-4-8.818-4s-7.984,1.718-8.818,4h-0.182v4l-8-8l16-10h2l16,10L35.104,28.771z M13.104,28.771l2,2v2l2,6h-6l2-6
		V28.771z M26.104,22.771c3.865,0,7,1.791,7,4v7.514c-1.649-0.916-4.155-1.514-7-1.514c-2.846,0-5.352,0.598-7,1.514v-7.514
		C19.104,24.562,22.238,22.771,26.104,22.771z"/>
	<path display="inline" fill-rule="evenodd" clip-rule="evenodd" fill="#FFFFFF" d="M35.104,27.771v-4h-0.182
		c-0.834-2.282-4.465-4-8.818-4s-7.984,1.718-8.818,4h-0.182v4l-8-8l16-10h2l16,10L35.104,27.771z M13.104,27.771l2,2v2l2,6h-6l2-6
		V27.771z M26.104,21.771c3.865,0,7,1.791,7,4v7.514c-1.649-0.916-4.155-1.514-7-1.514c-2.846,0-5.352,0.598-7,1.514v-7.514
		C19.104,23.562,22.238,21.771,26.104,21.771z"/>
</g>
<g id="residence">
	<path opacity="0.2" d="M28.502,13.5h-3.896c-0.546,1.518-1.555,2.845-3.023,3.982c-1.47,1.139-2.831,1.911-4.084,2.318v4.331
		c2.381-0.781,4.281-1.987,6.036-3.617V38.5h4.968V13.5z"/>
	<path fill="#FFFFFF" d="M28.502,12.5h-3.896c-0.546,1.518-1.555,2.845-3.023,3.982c-1.47,1.139-2.831,1.911-4.084,2.318v4.331
		c2.381-0.781,4.281-1.987,6.036-3.617V37.5h4.968V12.5z"/>
</g>
</svg>
