<?xml version="1.0" encoding="utf-8"?>
<!-- Generator: Adobe Illustrator 14.0.0, SVG Export Plug-In . SVG Version: 6.00 Build 43363)  -->
<!DOCTYPE svg PUBLIC "-//W3C//DTD SVG 1.1//EN" "http://www.w3.org/Graphics/SVG/1.1/DTD/svg11.dtd">
<svg version="1.1" id="Layer_1" xmlns="http://www.w3.org/2000/svg" xmlns:xlink="http://www.w3.org/1999/xlink" x="0px" y="0px"
	 width="266px" height="266px" viewBox="0 0 266 266" enable-background="new 0 0 266 266" xml:space="preserve">
<radialGradient id="SVGID_1_" cx="133" cy="133" r="133" gradientUnits="userSpaceOnUse">
	<stop  offset="0.9212" style="stop-color:#000000;stop-opacity:0"/>
	<stop  offset="0.9283" style="stop-color:#101010;stop-opacity:0.1306"/>
	<stop  offset="0.9352" style="stop-color:#2E2E2F;stop-opacity:0.2568"/>
	<stop  offset="0.942" style="stop-color:#4A4A4C;stop-opacity:0.3813"/>
	<stop  offset="0.9487" style="stop-color:#626365;stop-opacity:0.5048"/>
	<stop  offset="0.9554" style="stop-color:#7D7F81;stop-opacity:0.6275"/>
	<stop  offset="0.9621" style="stop-color:#9EA0A2;stop-opacity:0.7497"/>
	<stop  offset="0.9688" style="stop-color:#C7C9CB;stop-opacity:0.8716"/>
	<stop  offset="0.9752" style="stop-color:#F8F8F9;stop-opacity:0.9903"/>
	<stop  offset="0.9758" style="stop-color:#FFFFFF"/>
</radialGradient>
<path fill-rule="evenodd" clip-rule="evenodd" fill="url(#SVGID_1_)" d="M133,257.683C64.136,257.683,8.308,201.858,8.308,133
	S64.136,8.317,133,8.317c68.864,0,124.692,55.824,124.692,124.683H266C266,59.546,206.454,0,133,0S0,59.546,0,133
	s59.546,133,133,133V257.683z"/>
<path fill-rule="evenodd" clip-rule="evenodd" fill="none" stroke="#F7941E" stroke-width="2" d="M137.013,195.053h-2.509v0.031
	c-0.501,0.013-1.002,0.025-1.505,0.025c-34.949,0-63.281-28.331-63.281-63.281c0-34.949,28.332-63.281,63.281-63.281
	c34.949,0,63.281,28.332,63.281,63.281c0,0.672-0.015,1.34-0.035,2.007h16.831c0.017-0.667,0.025-1.336,0.025-2.007
	c0-44.239-35.863-80.102-80.102-80.102c-44.239,0-80.103,35.863-80.103,80.102s35.863,80.102,80.103,80.102
	c0.67,0,1.34-0.009,2.007-0.025v-0.126h102.865l15.555-29.271c0,0-76.368,0-108.552,0
	C142.099,182.509,139.234,195.053,137.013,195.053z M156.164,145.879c0,0-8.74,24.677-10.819,30.774
	c-0.21,0.615,0.603,1.339,1.118,1.339c10.595,0,108.469,0,108.469,0l9.533-32.113H156.164z"/>
<g id="Layer_3">
	<path fill-rule="evenodd" clip-rule="evenodd" fill="#414042" fill-opacity="0.1" stroke="#C2B59B" d="M154.343,232.687h63.225
		c1.662,0,3.011,1.349,3.011,3.011v24.587c0,1.663-1.349,3.011-3.011,3.011h-63.225c-1.663,0-3.011-1.348-3.011-3.011v-24.587
		C151.332,234.035,152.68,232.687,154.343,232.687z"/>
</g>
</svg>
